<svg id="Capa_1" data-name="Capa 1" xmlns="http://www.w3.org/2000/svg" viewBox="0 0 134.24 23.98"><defs><style>.cls-1{fill:#ffc000;}</style></defs><path class="cls-1" d="M57.33,116.24c.06-.21.12-.39.17-.57.85-2.79,1.69-5.59,2.54-8.38A.19.19,0,0,0,60,107l-7.14-5.36-.41-.3h9.44a.19.19,0,0,0,.21-.15q1.47-4.41,3-8.82a.77.77,0,0,0,.06-.15c.09.27.17.51.26.75l2.77,8.23a.17.17,0,0,0,.19.14h9.45l-.37.28L70.2,107a.21.21,0,0,0-.09.27L72,113.62l.75,2.49a.86.86,0,0,1,0,.13l-.13-.09-7.46-5.21a.19.19,0,0,0-.28,0l-7.46,5.21Z" transform="translate(-52.4 -92.26)"/><path d="M84,116.24c.06-.21.12-.39.17-.57.85-2.79,1.69-5.59,2.54-8.38a.2.2,0,0,0-.09-.25l-7.14-5.36-.41-.3h9.44a.19.19,0,0,0,.21-.15q1.47-4.41,3-8.82a.77.77,0,0,0,.06-.15c.09.27.17.51.26.75l2.77,8.23a.17.17,0,0,0,.19.14h9.45l-.37.28L96.91,107a.21.21,0,0,0-.09.27l1.91,6.32.75,2.49a.86.86,0,0,1,0,.13l-.13-.09-7.46-5.21a.19.19,0,0,0-.28,0l-7.46,5.21Z" transform="translate(-52.4 -92.26)"/><path d="M110.75,116.24c.06-.21.12-.39.17-.57.85-2.79,1.69-5.59,2.54-8.38a.2.2,0,0,0-.09-.25l-7.14-5.36-.41-.3h9.44a.19.19,0,0,0,.21-.15q1.47-4.41,3-8.82a.77.77,0,0,0,.06-.15c.09.27.17.51.26.75l2.77,8.23a.17.17,0,0,0,.19.14h9.45l-.37.28L123.62,107a.21.21,0,0,0-.09.27l1.91,6.32.75,2.49a.86.86,0,0,1,0,.13l-.13-.09-7.46-5.21a.19.19,0,0,0-.28,0l-7.46,5.21Z" transform="translate(-52.4 -92.26)"/><path d="M139.4,116.24c.06-.21.11-.39.17-.57.84-2.79,1.68-5.59,2.53-8.38A.19.19,0,0,0,142,107l-7.14-5.36-.42-.3h9.44a.19.19,0,0,0,.21-.15l3-8.82a1.14,1.14,0,0,1,.06-.15l.25.75c.93,2.74,1.85,5.49,2.77,8.23a.19.19,0,0,0,.2.14h9.44l-.37.28L152.26,107a.21.21,0,0,0-.09.27c.64,2.11,1.28,4.21,1.91,6.32.26.83.51,1.66.76,2.49,0,0,0,.07,0,.13l-.13-.09-7.46-5.21a.19.19,0,0,0-.28,0l-7.47,5.21Z" transform="translate(-52.4 -92.26)"/><path d="M166.23,116.24c.07-.21.12-.39.18-.57.84-2.79,1.68-5.59,2.53-8.38a.19.19,0,0,0-.08-.25q-3.59-2.67-7.15-5.36l-.41-.3h9.44a.19.19,0,0,0,.21-.15l3-8.82a1.14,1.14,0,0,1,.06-.15l.25.75,2.77,8.23a.18.18,0,0,0,.2.14h9.44l-.37.28L179.1,107a.21.21,0,0,0-.09.27c.64,2.11,1.28,4.21,1.91,6.32.25.83.51,1.66.76,2.49,0,0,0,.07,0,.13l-.13-.09-7.47-5.21a.19.19,0,0,0-.28,0l-7.46,5.21A.68.68,0,0,1,166.23,116.24Z" transform="translate(-52.4 -92.26)"/></svg>