<?xml version="1.0" encoding="utf-8"?>
<!-- Generator: Adobe Illustrator 24.2.1, SVG Export Plug-In . SVG Version: 6.00 Build 0)  -->
<svg version="1.1" id="Capa_1" xmlns="http://www.w3.org/2000/svg" xmlns:xlink="http://www.w3.org/1999/xlink" x="0px" y="0px"
	 viewBox="0 0 408 231.3" style="enable-background:new 0 0 408 231.3;" xml:space="preserve">
<style type="text/css">
	.st0{enable-background:new    ;}
	.st1{fill:#FFFFFF;}
</style>
<g class="st0">
	<path class="st1" d="M225.8,198.1c-1.6,0.7-3.4,1.5-5.4,2.2c-1.9,0.8-3.9,1.2-5.9,1.5c-3,0.3-5.5-0.2-7.4-1.5
		c-0.4-0.6-0.7-1.1-1-1.3c-0.2-0.2-0.4-0.5-0.6-0.7c-0.2-0.3-0.3-0.6-0.4-1.1c-0.8-0.8-1.5-1.7-2-2.8c-0.5-1.1-1-2.2-1.2-3.4
		c-0.3-1.2-0.4-2.4-0.5-3.6c0-1.2,0-2.4,0.2-3.5c0.1-0.3,0.1-0.5,0.1-0.8c0-0.2,0-0.5,0-0.8c0.1-1,0.3-2,0.5-2.9
		c0.2-0.9,0.5-1.8,0.9-2.5c-0.3-0.5-0.4-1.1-0.2-1.8c0.2-0.7,0.4-1.3,0.6-1.9c0.6-2.4,1.1-4.4,1.5-6.1c0.4-1.7,0.8-3.3,1.3-5
		c0.7-2.8,1.4-5.6,2-8.4c0.6-2.8,1.1-5.7,1.5-8.9c0.5-0.4,0.8-0.6,1-0.8c0.4-0.2,0.6-0.3,0.9-0.4c1.2,0.4,2.5,0.8,4,1.2
		c1.5,0.4,2.8,0.5,3.7,0.4c0.5,0.3,0.8,0.4,1,0.6c0.1,0.1,0.3,0.3,0.4,0.4c0.8,0.7,1.4,1.5,2,2.2c0.6,0.8,0.8,1.8,0.8,3.2
		c-0.3,0.6-0.5,0.9-0.7,0.9c-0.2,1.2-0.4,2.3-0.6,3.2c-0.2,0.9-0.5,1.8-0.8,2.7c-0.3,1-0.6,1.9-0.9,2.9c-0.3,0.9-0.5,2.1-0.5,3.5
		c-0.2,0.3-0.3,0.6-0.4,0.9c-0.1,0.3-0.1,0.5-0.2,0.9c-0.1,0.3-0.2,0.7-0.3,1c-0.1,0.3-0.3,0.7-0.6,0.9c0,1.6-0.2,2.9-0.5,3.9
		c-0.3,1-0.6,2-0.9,3c-0.5,1.8-1,3.7-1.4,5.5c-0.4,1.8-0.5,3.9-0.4,6.1c0.3-0.2,0.6-0.2,0.8-0.3s0.5-0.1,0.8-0.1
		c0.5-0.1,1.2,0,1.9,0.1c1.7-1.2,3.6-2,5.8-2.4c2.1-0.4,4.3-0.8,6.4-1.1c0.8-0.1,1.7-0.2,2.6-0.3c0.8-0.1,1.6-0.2,2.3-0.4
		c0.6,0.2,0.9,0.4,1.1,0.4c0.2,0,0.4,0,0.7,0c0.4,0,0.8-0.1,1.1,0c0.8,0.6,1.5,1,2.3,1.2c0.7,0.2,1.4,0.4,2.2,0.6
		c0.7,0.2,1.4,0.4,2,0.6c0.7,0.2,1.3,0.5,2,0.9l1.1,3.8c0.5,0.5,0.7,0.8,0.7,1c0.1,0.5,0,0.9-0.2,1.1l0.3,1
		c-0.9,0.3-1.5,0.6-1.8,0.8c-0.3,0.3-0.6,0.6-0.9,0.9c-0.5,0.1-0.8,0.2-1,0.2c-0.2,0-0.4,0-0.6,0.1c-0.9,0.1-1.9,0.4-3,0.8
		c-1.7-0.4-3.4-0.5-5.2-0.3c-0.7,0.1-1.4,0.2-2.1,0.3c-0.7,0.1-1.4,0.3-2.2,0.4c-0.7,0.2-1.5,0.4-2.2,0.5c-0.8,0.1-1.5,0.3-2.3,0.3
		L225.8,198.1z"/>
	<path class="st1" d="M299,183.5c-0.3,1.1-0.7,2.2-1.3,3.3c-0.6,1.1-1.3,2.2-2.2,3.1c-0.9,0.9-1.8,1.7-2.9,2.4
		c-1.1,0.7-2.3,1.1-3.5,1.3c-0.8-0.1-1.4-0.2-1.7-0.4s-0.6-0.3-0.9-0.5c-0.2-0.1-0.4-0.2-0.5-0.3c-0.2-0.1-0.3-0.1-0.4-0.2l-1.1-0.3
		l0.2-1.2c0.1-0.5,0-0.9-0.2-1.1s-0.6-0.6-1.2-1c-0.2-0.2-0.4-0.3-0.6-0.5c-0.2-0.2-0.4-0.3-0.5-0.5l-1.7-1.6l2.4-0.9
		c1.5-0.6,2.4-1.2,2.9-2c0.4-0.7,0.5-1.9,0.2-3.4c-1.2-0.1-2.3,0-3.1,0.2c-0.8,0.3-1.6,0.6-2.4,0.9c-1.1,0.4-2.1,0.8-3.2,1.1
		c-1.1,0.3-2.3,0.6-3.7,0.7c-0.5,0.1-0.9,0.1-1.4,0.1c-0.4,0-0.9,0-1.4,0l-0.9-0.1c-0.2-0.7-0.4-1-0.5-1.1c-0.1-0.1-0.3-0.2-0.4-0.3
		c-0.3-0.3-0.7-0.6-1.1-1.1c-0.4-0.5-0.5-1.1-0.4-1.9c-0.4-0.5-0.6-1-0.7-1.6c-0.3,0.8-0.5,1.6-0.6,2.4l-0.3,1l-0.9,0.3
		c-0.1,0.1-0.2,0.2-0.2,0.4c0,0.2-0.1,0.4,0,0.5l-0.3,1.6c-0.1,0.1-0.2,0.3-0.3,0.4c-0.1,0.1-0.2,0.2-0.3,0.4
		c-0.1,0.6-0.2,1.1-0.3,1.7c-0.1,0.6-0.3,1.1-0.4,1.6c-0.2,0.8-0.4,1.6-0.5,2.4c-0.1,0.8-0.1,1.5,0,2.3l-0.3,1
		c-0.3,0.4-0.6,0.7-0.9,1c-0.3,0.3-0.7,0.5-1,0.7c-0.1,0.1-0.3,0.3-0.5,0.4c-0.2,0.1-0.4,0.2-0.5,0.3l-0.2,1l-1.1,0.3
		c-0.7,0.2-1.1,0.3-1.4,0.4c-0.3,0.1-0.6,0.2-0.9,0.2l-0.9,0c-0.7-0.5-1.3-0.9-1.7-1.2c-0.4-0.3-0.9-0.6-1.4-0.8
		c-0.6-0.7-1-1.2-1.1-1.5c-0.1-0.4-0.2-0.7-0.3-1c-0.2-0.4-0.3-0.6-0.3-0.9c-0.1-0.2-0.2-0.4-0.3-0.5l-1.3-1l0.9-0.9l-0.1-1.6
		c0.9-3.2,1.9-6.3,2.9-9.3s2.2-6.1,3.3-9.2c0.4-1,0.7-2,1.1-3.1c0.4-1,0.7-2,1.1-3.1c-0.1-0.2-0.1-0.4-0.2-0.6c0-0.2,0-0.5,0.1-0.8
		c0.6-1.1,1-2.1,1.3-3c0.3-0.9,0.7-1.7,1-2.6c0.4-1.1,0.8-2.1,1.2-3.2c0.4-1,1-2.1,1.6-3.2l1.4-0.8c0.2-0.1,0.4-0.2,0.6-0.3
		c0.2-0.1,0.5-0.2,0.8-0.2l1.4,0c1.6-1,3-2.2,4.1-3.8c1.1-1.6,2.2-3.4,3.4-5.6l0.8-1.4l1.3,0.6c0.3,0.2,0.8,0.3,1.3,0.4
		c0.6,0.1,1.2,0.2,1.8,0.3c1.1,0.1,2.2,0.3,3.2,0.5c1,0.2,1.8,0.6,2.5,1.1c0.5,0.9,0.8,1.6,0.9,2.1c0.1,0.5,0.3,1,0.4,1.4
		c0.3,1,0.6,2,0.8,3c0.3,1,0.5,2.2,0.7,3.4c0.4,1,0.8,2,1.1,3c0.3,1,0.6,2,0.9,3c0.5,1.4,0.9,2.8,1.4,4.1c0.4,1.3,1,2.6,1.6,3.7
		c0.5-0.1,0.8-0.1,0.9,0c0.3-0.2,0.6-0.3,0.9-0.4c0.3-0.1,0.7-0.2,1.1-0.3l1-0.2l0.5,0.9c0.1,0.3,0.4,0.6,1,0.8
		c0.8,0,1.4,0.1,1.8,0.3c0.4,0.2,0.8,0.5,1.1,0.8c0.3,0.2,0.5,0.4,0.8,0.5l1.4,0.4l-0.6,1.4c-0.5,1.2-1.2,2.3-2.3,3.4
		c-1,1.1-2.2,2.1-3.5,2.9c0.1,0.4,0.2,0.7,0.2,1c0.1,0.3,0.2,0.7,0.3,1c0.3,1,0.6,2.1,0.8,3.1c0.2,1.1,0.4,2.2,0.4,3.4L299,183.5z
		 M271,170.6c1.8-0.3,3.4-0.6,4.9-0.9c1.5-0.3,3.1-0.7,4.9-1.3c-0.6-1.8-1.3-3.6-2-5.5c-0.7-1.9-1.4-3.8-2.2-5.7l-0.4,1
		c-1.1,1.4-2.1,3-3,4.7c-1,1.7-1.8,3.3-2.4,4.8c-0.3,0.6-0.6,1.2-0.9,1.8c-0.3,0.6-0.6,1.2-0.8,1.7c0.4-0.1,0.7-0.2,1-0.2
		C270.4,170.8,270.7,170.7,271,170.6z"/>
	<path class="st1" d="M322.7,172c-0.5,0.2-0.9,0.5-1.1,1.1c-0.2,0.5-0.4,1.1-0.5,1.7c-0.2,0.6-0.3,1.1-0.5,1.6
		c-0.2,0.5-0.5,0.7-0.9,0.8c0,0.5-0.1,0.9-0.4,1.3s-0.5,0.8-0.7,1.2c-0.2,0.4-0.3,0.9-0.4,1.3c-0.1,0.5,0,1,0.4,1.6
		c-0.4,0.4-0.7,1-0.7,1.6c-0.1,0.7-0.1,1.3-0.2,2c-0.1,0.6-0.3,1.2-0.6,1.6c-0.3,0.5-1,0.7-1.9,0.8c-0.2,0.3-0.2,0.4,0,0.5
		c0.1,0,0.2,0.3,0.3,0.6c-0.7,0-1.2,0-1.5,0.3c-0.3,0.2-0.7,0.4-1.2,0.5c-1.2-0.2-2.2-0.8-3.1-1.6c-0.9-0.8-1.6-1.8-2.3-2.8
		c-0.7-1.1-1.3-2.1-1.9-3.2c-0.6-1.1-1.1-2.1-1.6-2.9c0.1-0.7,0.1-1.3-0.1-2c-0.2-0.6-0.5-1.1-0.8-1.5c2.3-6.6,4.8-13.7,7.6-21.3
		c2.8-7.5,5.3-15,7.7-22.3c1.5,0.4,2.9,0.9,4.3,1.4c1.4,0.6,2.8,1.2,4,2c1.2,0.8,2.3,1.7,3.2,2.8c0.9,1.1,1.6,2.4,2,3.8
		c-0.1,0.4-0.2,0.5-0.4,0.5c-0.2-0.1-0.3,0-0.4,0.2c0.3,0.3,0.4,0.5,0.5,0.6c0,0.1,0.1,0.2,0,0.4c0,0.1,0,0.3,0,0.5
		c0,0.2,0.1,0.5,0.4,0.8c-0.2,0-0.4,0-0.5,0.1c-0.1,0.1-0.3,0.2-0.6,0.1c0.3,0.6,0.4,1.2,0.4,1.6c0,0.4-0.1,0.8-0.3,1.2
		c-0.1,0.4-0.3,0.7-0.3,1.1c-0.1,0.4,0,0.9,0.3,1.5c-0.2,0-0.3,0.1-0.4,0.2c-0.1,0.1-0.1,0.2-0.2,0.3c-0.1,0.1-0.1,0.2-0.2,0.3
		c-0.1,0.1-0.2,0.1-0.4,0.1c0.3,1.3,0.5,2.6,0.6,4c0.1,1.3,0.2,2.7,0.3,4.1c0.1,1.4,0.3,2.8,0.5,4.3c0.2,1.5,0.6,3,1.1,4.5
		c2-1.5,3.6-3.3,4.7-5.5c1.1-2.1,1.9-4.5,2.5-7.1c0.6-2.6,0.9-5.3,1-8.2c0.1-2.9,0.3-5.9,0.4-8.9c0.5-0.6,0.8-1.3,1.1-2.1
		c0.2-0.8,0.4-1.7,0.6-2.6c0.1-0.9,0.3-1.8,0.4-2.7c0.1-0.9,0.4-1.7,0.7-2.5c0.9,0,1.7,0.2,2.4,0.6c0.7,0.4,1.3,0.8,1.9,1.3
		c0.6,0.5,1.2,0.9,1.9,1.3c0.7,0.4,1.4,0.6,2.4,0.6c0.8,1,1.6,1.9,2.3,2.8c0.7,0.9,1.2,1.9,1.5,3c-0.3,0.5-0.4,1.1-0.5,1.7
		s-0.2,1.2-0.3,1.9c-0.1,0.6-0.3,1.2-0.5,1.8c-0.2,0.5-0.6,1-1.1,1.5c0,1.6-0.1,3.1-0.2,4.4c-0.1,1.3-0.3,2.7-0.4,4
		c-0.1,1.3-0.2,2.6-0.3,4s0.1,2.9,0.3,4.5c-0.3,1.4-0.7,3-1.1,4.6c-0.4,1.6-0.6,3.1-0.8,4.4c-0.9,0.9-1.5,1.9-2,3.1
		c-0.4,1.2-0.9,2.3-1.4,3.5c-0.2,0.3-0.4,0.3-0.4,0.2c-0.1-0.1-0.3-0.2-0.7-0.2c0.1,0.2,0.1,0.4,0.1,0.5c0,0.1-0.1,0.2-0.2,0.3
		c-0.1,0.1-0.1,0.2-0.1,0.4s0.1,0.4,0.2,0.7c-0.8,0.5-1.5,1.1-2.1,1.8c-0.6,0.7-1.2,1.4-1.9,2c-0.7,0.6-1.6,1.1-2.6,1.4
		c-1,0.3-2.4,0.2-4.2-0.2c-2.7-1.6-5.1-3.4-7.3-5.6C326.1,177.8,324.3,175.1,322.7,172z"/>
	<path class="st1" d="M400.7,155.5c0,0.3-0.1,0.6-0.1,0.8c0,0.2-0.1,0.4-0.1,0.6c0,0.2,0,0.4,0,0.7c0,0.3,0.1,0.6,0.1,1
		c-1.5,3.4-3.5,6.4-6,8.8c-2.5,2.5-5.4,4.7-8.5,6.8c-3.1,2-6.4,3.9-9.8,5.7c-3.4,1.8-6.8,3.6-10,5.5c-1.5-0.2-2.7-0.7-3.5-1.5
		c-0.9-0.8-1.5-1.7-2-2.8c-0.5-1.1-0.9-2.3-1.2-3.6c-0.3-1.3-0.6-2.7-0.9-4.2c0.1-0.7,0.3-1.3,0.6-1.8s0.4-1.2,0.3-2
		c0.3-1.6,0.6-3.2,1-4.8c0.3-1.6,0.5-3.1,0.4-4.7c0.1-0.5,0.4-0.9,0.9-1.1c0-2.9-0.3-5.9-0.9-8.9c-0.6-3-1.4-5.7-2.4-8.3
		c0-0.6,0-1.1,0.1-1.3s0-0.5-0.1-0.6c-0.1-0.5,0-0.7,0.4-0.8c0.4,0,0.8-0.1,1.2-0.1c-0.1-0.9-0.4-1.8-0.8-2.7
		c-0.4-0.9-0.9-1.9-1.3-3c0.3-1,0.5-1.9,0.5-2.8c0-0.9,0.2-1.7,0.6-2.4c3.4,0.7,6.7,1.6,9.8,2.7c3.2,1.1,6.2,1.9,9.2,2.2
		c2.4,1.3,4.8,2.7,7.2,4c2.5,1.3,4.8,2.8,6.8,4.4s3.9,3.6,5.4,5.8C399.2,149.5,400.2,152.2,400.7,155.5z M379.7,162.8
		c1.2-0.6,2.4-1.3,3.6-2c1.2-0.7,2.3-1.4,3.3-2.2c1-0.8,1.9-1.7,2.6-2.7s1.3-2.2,1.7-3.5c-0.4-0.7-1-1.3-1.7-1.8
		c-0.7-0.5-1.3-1-2-1.4c-0.7-0.4-1.3-0.9-1.9-1.4c-0.6-0.5-1.2-1.1-1.6-1.9c-0.8,0-1.5-0.2-2.2-0.5c-0.6-0.3-1.3-0.5-1.9-0.8
		c-0.6-0.3-1.3-0.5-1.9-0.8c-0.7-0.2-1.4-0.3-2.3-0.3c-1.4-0.5-2.7-0.9-3.8-1.1c-1.1-0.2-1.9-0.5-2.5-0.9c-0.4,0-0.7,0.2-1,0.4
		c0.9,2.2,1.5,4.4,2.1,6.4c0.5,2,0.9,4,1.2,6c0.2,2,0.4,4.1,0.3,6.3c0,2.2-0.1,4.5-0.3,7c0.6-0.1,1.1-0.3,1.6-0.6
		c0.5-0.3,1-0.6,1.5-0.8c0.5-0.3,1-0.6,1.6-0.9c0.6-0.3,1.2-0.5,2-0.6c0.1-0.4,0.4-0.7,0.7-1S379.4,163.2,379.7,162.8z"/>
</g>
<g>
	<path class="st1" d="M48.4,30.9c11.3-1.2,20.2,4,26.8,15.7L59,68.6c-2.4-2.2-5.7-3.3-9-3c-5.7,0.6-11.1,6.2-16.3,16.7
		c-4.2,8.7-6.7,16.6-7.5,23.8c-0.4,3.1-0.4,6.1-0.2,9.2c0.8,7.3,4,11.9,9.5,14.1c1.8,0.7,3.7,0.9,5.7,0.7
		c5.6-0.6,11.1-5.4,16.4-14.4l7.3,18.8c-9.4,13-19.7,20.2-30.7,21.3C23,157,14.1,151.9,7.7,140.6c-4-7-6.5-14.7-7.2-22.7
		c-0.7-6.7-0.6-13.5,0.3-20.2C2.4,83,7.3,68.8,15,56.2C24.4,40.6,35.5,32.2,48.4,30.9z"/>
</g>
<g>
	<path class="st1" d="M118.4,18.9c11.5-1.2,20.3,4.3,26.4,16.5c3.3,6.7,5.3,13.9,6.1,21.4c0.8,8.3,0.5,16.7-0.8,25
		c-2.4,15.6-7.9,30.6-16.3,44.1c-10.3,16.9-22.2,26-35.6,27.5c-11.6,1.2-20.5-4.3-26.7-16.5c-3.2-6.5-5.2-13.5-5.8-20.7
		c-0.8-8.5-0.5-17,0.9-25.4c2.4-15.7,7.8-30.7,16.1-44.2C92.9,29.6,104.8,20.4,118.4,18.9z M116.8,59.8c-5.9,0.6-11.5,6.1-16.6,16.6
		c-3.9,7.4-6.6,15.4-8,23.7c-0.5,3.5-0.7,7.1-0.3,10.7c0.5,4.4,1.9,7.9,4.4,10.5c2.8,2.9,6.9,4.3,10.9,3.6
		c6.1-0.7,11.2-4.4,15.4-11.3c3.5-5.8,5.7-12.2,6.5-18.9c1.2-8.1,0.8-16.3-1.3-24.1C125.7,62.8,122,59.2,116.8,59.8z"/>
</g>
<g>
	<path class="st1" d="M140.6,145.9c10.6-38.1,17.7-77.1,21.3-116.5l38.1-10.5l0.8,60.1l9.3-56.6l36.6-10.5
		c-0.7,35.7,0.5,67.8,3.6,96.1c0.6,5.6,1.2,11.2,1.8,16.7l-32.5,9.4l-1.8-71.7l-12.8,81l-17.6,4.3V46.6l-13.6,91.1L140.6,145.9z"/>
</g>
<g>
	<path class="st1" d="M263.3,15.9l27.4-8.2c-6.6,44.6-9.9,83-10,115.1l-25,9.9L263.3,15.9z"/>
</g>
<g>
	<path class="st1" d="M334.8,0.2c11.3-1.2,20.2,4,26.8,15.7l-16.1,22.1c-2.4-2.2-5.7-3.3-9-3c-5.7,0.6-11.2,6.2-16.3,16.7
		c-4.2,8.7-6.7,16.6-7.5,23.8c-0.4,3.1-0.5,6.1-0.2,9.2c0.8,7.3,4,11.9,9.5,14.1c1.8,0.7,3.7,0.9,5.7,0.7
		c5.6-0.6,11.1-5.4,16.3-14.4l7.3,18.8c-1.3,1.7-12.3,15.6-23.4,19.6c-2.4,0.8-4.8,1.4-7.3,1.7c-4,0.4-8.1,0-11.9-1.4
		c-5.8-2.2-10.7-6.8-14.7-13.8c-4-7-6.5-14.7-7.2-22.7c-0.7-6.7-0.6-13.5,0.3-20.2c1.7-14.7,6.6-28.8,14.3-41.4
		C310.8,10,321.9,1.6,334.8,0.2z"/>
</g>
</svg>
