<svg id="svg4928" xmlns="http://www.w3.org/2000/svg" viewBox="0 0 764.25 339.09"><defs><style>.cls-1{fill:#fff;}</style></defs><path class="cls-1" d="M467.66,243.43H457.39V149h7.9c17.38,0,28.44,10.5,28.44,47.21C493.73,220.55,486.62,243.43,467.66,243.43ZM675,269.18c0-49.51,4.71-86.94,12.82-114.27V390.09C678.67,360.43,675,319.56,675,269.18Zm140.59-48.63-12,0c1.71-24.55,4.77-44.9,9.06-61.6a239.78,239.78,0,0,1,3,39.71Zm81.61,84.38c0,73.41-7.11,88.2-19,88.2s-19-14.79-19-88.2V233.42c0-73.43,7.11-88.19,19-88.19s19,14.76,19,88.19Zm-79.72,90.38v.09l.06.06Zm-15.39-114.7h.15l-.13-.08h0ZM493.65,439v-.14m0-.72,0,.23v-.23Zm-225.27-338L242,342.12,216,100.21H174.24v58.56l34.55,280.12-.13.41,62.44-.06,4.8-37.17.19-1.48,25.29-197.68V100.21ZM802.07,280.53h0v.08h.15Zm0,0h0v.08h.15Zm0,0h0v.08h.15Zm0,0h0v.08h.15Zm0,0h0v.08h.15Zm15.37,114.78v.09l.06.06Zm0,0v.09l.06.06ZM802.07,280.53h0v.08h.15Zm0,0h0v.08h.15Zm15.37,114.78v.09l.06.06Zm0,0v.09l.06.06ZM802.07,280.53h0v.08h.15Zm0,0h0v.08h.15Zm15.37,114.78v.09l.06.06Zm0,0v.09l.06.06ZM802.07,280.53h0v.08h.15Zm0,0h0v.08h.15Zm0,0h0v.08h.15Zm0,0h0v.08h.15Zm0,0h0v.08h.15Zm0,0h0v.08h.15Zm15.37,114.78v.09l.06.06ZM515.05,278.71c22.9-16.21,30-54.35,30-83,0-17.23-1.88-31.75-5.41-43.86H510.82V111c-9.44-5.93-20.54-9.39-33-10.81H418.64v51.68H406V100.21H314.53l-13.15,102.7,0,236h-.45v.32l105.15-.09V386.46H352.7V294h45.42v-55.3H352.7V151.89l53.35,0V386.45h15.37V439.1l36,0V293h12.24l23.68,143.33h0l.06.47.23,1.36,0,.23.08.49h-.08l0,.14,51.78,0v-.12Zm121.57-178.5H510.82V111c13.22,8.32,23.14,21.48,28.8,40.8h0l0,.06h.22l-.22-.06,16.59.07v287h0V439l51.38,0v-287h29ZM768.87,438.78l-.08.06.16-.06Zm26.9,0h0l.08.13h0Zm21.75,0v.07l0-.07Zm31.41,0h-.59l.15.11h.62Zm56.92-338.5H848c-15.33,9.26-27.44,27.73-35.37,58.6-5.56-32.51-18.35-50-33.67-58.6H722.31c-14.11,8.94-26.11,26.33-34.49,54.56l-.05-54.56H653v51.68H636.63l-.2,287h-.15l51.5,0V390.06c7.2,23.48,17.85,40.14,32.7,48.76l48.39,0c8.41-5.64,15.3-14.06,19.82-22.28l7.08,22.26,21.75,0-.08-43.34-.07-.08c-9.22-25.81-14.62-63-15.32-114.71H755.12V330.2h19c0,16.19-1.58,62.93-20.92,62.93-15.8,0-24.48-12.88-24.48-124.43,0-109.18,9.47-123.47,22.11-123.47,22.1,0,19,59.59,19,75.31h33.74c-1,14.69-1.5,30.83-1.5,48.64q0,5.77.08,11.34h0l15.45.08V395.49l0,0c7.89,22,18.51,35.83,31.43,43.24l56,0c14-8,25.45-23.4,33.53-48.78V148.46C930.58,123.62,919.48,108.33,905.85,100.21Z" transform="translate(-174.24 -100.21)"/></svg>