<svg id="svg4928" xmlns="http://www.w3.org/2000/svg" viewBox="0 0 183.13 197.02"><defs><style>.cls-1{fill:#fff;}</style></defs><path class="cls-1" d="M511.14,356.57h-5c-14.53-.05-23.07-8.37-23.23-22.79-.06-5.4-1.07-10.35-5.65-13.75-5.42-4-11-3.8-16.8-.49-13.94,7.92-25.1,4.75-33-9.17-1.73-3-3.53-6-5.18-9.11-5.9-11-2.79-22.46,7.82-28.95.71-.43,1.43-.84,2.15-1.26,11.26-6.78,11.38-19.34,0-25.9-6.05-3.5-10.57-7.88-12.35-14.86-3.92-15.36,13.65-38.72,28.88-37.73,3.94.25,8,2.09,11.57,4,11.2,6,21.87.13,22.52-12.64.9-17.58,8.08-24.46,25.67-24.36,4.81,0,9.73-.07,14.38.91,9.17,1.92,15.2,9.5,15.82,18.83.09,1.33,0,2.67.08,4,.38,13.34,11.26,19.54,22.83,13,13.37-7.54,24.73-4.4,32.38,8.95,1.9,3.33,3.88,6.61,5.65,10,5.55,10.56,2.46,21.92-7.6,28.27-1,.62-2,1.2-3,1.8-10.71,6.52-10.86,19-.06,25.33,6.33,3.7,11.16,8.22,12.9,15.63,3.58,15.2-14.11,38.32-29,37.24-4.1-.29-8.27-2.27-12-4.23-10.48-5.51-21.07.07-22,11.89C537.23,351,531.19,356.57,511.14,356.57ZM511,293.4c19.18-.14,35.33-16.45,35.18-35.53s-16.43-35.32-35.53-35.18-35.31,16.42-35.17,35.53S491.93,293.54,511,293.4Z" transform="translate(-419.28 -159.56)"/></svg>