<svg id="Capa_1" data-name="Capa 1" xmlns="http://www.w3.org/2000/svg" viewBox="0 0 460.37 669.27"><defs><style>.cls-1{fill:#fff;}</style></defs><path class="cls-1" d="M532.58,402.69c-4.17,11.82-8.42,23.62-12.47,35.5-.77,2.26-1.74,3.14-4.16,3.05-5.22-.18-10.46-.05-16.31-.05,2.08-6,4-11.43,5.89-16.89-.41-.19-.61-.36-.82-.37-9.46-.35-9.46-.35-12.71,8.76-3,8.5-3,8.5-12.18,8.5H469.47l13.8-38.61-10.9-7.41h32.69l-5.79,17.07a6,6,0,0,0,1.23.41c9.11.34,9.11.33,12.2-8.35,3.37-9.45,3.37-9.45,13.48-9.45h9.11C534.25,397.86,533.43,400.28,532.58,402.69Zm36.33,38.73c-8.41,2.77-16.7,2-24.78-1.11-7.8-3-10.38-8.78-7.88-16.78,1.27-4,2.54-8.06,4-12,3.92-11.08,15.76-18.78,27.85-17.8a63.93,63.93,0,0,1,13.87,2.59c6.11,1.9,9.13,6.33,9.09,11.78C590.91,423,581.39,437.31,568.91,441.42Zm70.18-17.65c-1.49.55-3,1-4.92,1.65,1.09,2.71,2.11,5.19,3.08,7.69s1.9,5.06,3,8.07c-5.65,0-10.85.1-16-.1a3.74,3.74,0,0,1-2.45-2.12c-1.76-4-3.28-8.18-5.24-13.16L611,441H591.6l13.76-38.46-10-6.8c.19-.41.29-.79.38-.79,13.47,0,26.95-.32,40.39.28,9.27.41,13.4,4.37,14.19,11.39C651.13,413.87,646.43,421,639.09,423.77Zm70.77-14.61H691.79c.94-5.32-.87-7.49-5.68-6.79a4.21,4.21,0,0,0-2.94,2.24,4,4,0,0,0,1.16,3.41,25,25,0,0,0,5.14,3c2.44,1.24,5,2.28,7.39,3.55,10.81,5.66,9.68,14.31,1.94,21.28-7.18,6.46-16.36,7.45-25.63,6.42a41,41,0,0,1-10.75-2.8c-5.16-2.1-8.26-7.25-7.61-12.11.12-.91,1.44-1.76,2.36-2.42.42-.29,1.22-.06,1.84-.06h14.9c-.18.81-.27,1.36-.43,1.88-1.23,4.16-.73,5.36,2.62,6.11,4,.88,7.94-1.08,8.17-4.39a4.93,4.93,0,0,0-2-3.57,40.7,40.7,0,0,0-6.34-3.15c-2.59-1.2-5.29-2.19-7.79-3.55-9.28-5.06-9.64-15.66-.27-20.69,11.37-6.11,23.43-6.44,35.32-1.3C708.76,398.66,710.69,403,709.86,409.16Zm57.6-4.33c-.28.65-1.84,1-2.82,1.06-5.23.1-10.47.05-15.71.05-6.08,0-6.08,0-7.37,7.08h12.19c-1.28,3.58-2.18,6.55-3.46,9.34a3.81,3.81,0,0,1-2.82,1.64c-3.35.2-6.71.08-10.2.08L735,430.23h23.58c-1.25,3.56-2.18,6.6-3.42,9.5a3.32,3.32,0,0,1-2.53,1.4c-13.46.09-26.92.06-41,.06,2.16-6.09,4.2-11.84,6.25-17.59,2.21-6.2,4.35-12.43,6.69-18.57.73-1.91.36-3-1.3-4-2.72-1.69-5.34-3.55-8.78-5.87h56.42C769.78,398.47,768.8,401.73,767.46,404.83ZM477,499.63c-.33.92-1.52,2.14-2.36,2.18-4.48.23-9,.11-13.47.12h-4.1c.85-2.64,1.41-4.94,2.34-7.07,1.08-2.47-.22-3.55-2.15-4.24-4.08-1.45-8,.3-9.67,4.63-2.62,7-5,14.07-7.31,21.16-1,3,2.16,5.3,6.05,4.47a7.81,7.81,0,0,0,6.28-6.64c.8-4.25,3-5.51,7.24-5.11,4.42.44,8.91.1,13.63.1a23.32,23.32,0,0,1-13.78,17.87c-9.68,4.54-19.57,4.26-29.3.24-7.48-3.09-10-8.59-7.67-16.19,1.34-4.41,2.77-8.79,4.42-13.09,4.44-11.58,13.87-16.45,25.38-17,5.66-.28,11.66,1.14,17.11,3C476.88,486.46,479.47,492.77,477,499.63Zm55.11,15c-3.94,9.64-14.83,15.92-26.89,16.53-5.23-1.39-10.68-2.25-15.63-4.31-6.67-2.79-8.78-8.48-6.65-15.42,1.24-4,2.57-8.06,3.94-12.05,4.29-12.49,17-20.12,31.14-18.24a46.33,46.33,0,0,1,13.49,3.83c5.72,2.7,7.68,8.07,5.88,14.18C535.87,504.33,534.18,509.54,532.13,514.58Zm74.48,11.32c-.65,2-1.55,3-3.93,2.93-5.35-.22-10.71-.07-16.65-.07,2.33-6.59,4.52-12.82,6.72-19.05l-.77-.39c-3.72,5.52-7.57,11-11.09,16.6a5.26,5.26,0,0,1-5.41,2.89c-3.35-.21-6.71,0-10.49,0V508.65l-.83-.15-7.18,20H537.57c1.74-5,3.41-9.84,5.14-14.68,2.56-7.13,5.06-14.29,7.79-21.35.85-2.23.33-3.34-1.61-4.48-2.62-1.53-5.07-3.37-8.34-5.59h39c.34,5.61.67,11.06,1.08,17.69,4.15-5.85,7.62-10.82,11.21-15.71.67-.91,1.82-2.06,2.76-2.08,8.95-.16,17.89-.09,27.28-.09-3.74,10.65-7.31,20.82-10.87,31C609.53,517.45,608,521.65,606.61,525.9Zm38.68-12.73c-1.55,4.44-3,8.94-4.8,13.29a4.31,4.31,0,0,1-3.1,2.2c-5.47.22-10.95.1-17,.1.87-2.59,1.6-4.88,2.41-7.14,3.34-9.36,6.57-18.76,10.16-28,1.2-3.09.56-4.72-2.2-6.2-2.28-1.23-4.35-2.87-6.51-4.33.06-.22.12-.45.19-.67h31.58C652.41,492.82,648.86,503,645.29,513.17ZM711,500a3.18,3.18,0,0,1-2.16,1.79c-4.61.17-9.23.09-13.84.1h-3.85c.89-2.61,1.64-4.8,2.38-7,.8-2.41-.17-3.79-2.55-4.42a7.34,7.34,0,0,0-9.25,4.82c-2.55,6.87-4.91,13.8-7.22,20.75-1.09,3.28,2,5.6,6,4.76,3.29-.68,5.06-2.94,6.14-5.9.68-1.85,1.28-3.72,1.92-5.6h18.84c-1.27,9.86-9.34,17.76-20.36,20.18a38.49,38.49,0,0,1-21.29-1.58c-8.47-2.94-11.35-9.13-8.55-17.71,1-3.18,2.32-6.29,3.17-9.52,3.69-14,15.64-19,26.05-19.8a34.72,34.72,0,0,1,18.83,3.71C711.42,487.8,713.58,493.76,711,500Zm58.7-3.75H752.12c-.28-1.82,0-4.17-1-5.25s-3.41-1.29-5.18-1.24a3.89,3.89,0,0,0-3,2.05,4,4,0,0,0,1.17,3.38,22.19,22.19,0,0,0,4.8,2.82c2.87,1.47,5.86,2.71,8.66,4.31,8.76,5,8.81,11.92,2.39,19.49-3.87,4.55-9.39,6.34-15.16,7.23-7.35,1.13-14.64,1-21.62-1.86-6.62-2.75-9.4-7.74-8.23-14.85h18.71c-.13.61-.22,1.17-.37,1.71-1.17,4-.47,5.47,3,6.28,3.3.76,7.73-1.69,7.7-4.68a5.58,5.58,0,0,0-2.67-3.94c-3.81-2.06-7.9-3.62-11.86-5.44-4.48-2.06-8.59-4.8-8.59-10.26,0-6,3.25-10.38,8.92-12.61,10.73-4.2,21.6-4.88,32.38-.35C768.3,485.62,770.48,489.85,769.68,496.29ZM828,371.41l-1.23-80.6H692.64c36.17-99.9,26.41-195-30-285.16a3.22,3.22,0,0,1,.69.37c.39.31.74.68,1.1,1,19,17.37,31.83,38.84,41.68,62.27,9.36,22.25,15,45.51,18.28,69.42a343.62,343.62,0,0,1,2.76,65.67,303,303,0,0,1-11.83,69c-.31,1.06-.52,2.15-.85,3.53,1.29.08,2.36.21,3.43.21,19.22,0,38.44-.05,57.66.07,2.53,0,3.66-.72,4.58-3.12A264.73,264.73,0,0,0,796.93,199c.41-5.35.84-10.69,1.35-17.22-8.32,11.62-15.14,23.2-26.87,30.49A197.28,197.28,0,0,0,792,159.63c4.32-18.51,5.88-37.31,5.55-57.22-8.47,11.92-14.66,24.66-27.13,32.26,12.89-32,17.54-64.94,12.68-100.23C776,46.09,770.63,57.8,759.61,65.61c8.78-33,11.88-65.57-3.22-98.3C751-19,747.94-5,738.11,6.93c-1.4-34.52-4.09-67.64-28.7-94.64-2.15,16,.27,32.27-7.5,47.82a129.31,129.31,0,0,0-22.1-45.67c-10.27-13.52-21.93-25.5-37.7-34.87,5.93,16.23,11,31.63,10.14,49.25-30.86-30.25-68.34-45.38-110.18-53.6,15.29,14.81,31.7,27.19,43.72,44C535.92-96.6,485.32-100.94,433.72-92.83c26.19,8,52.48,15.46,76.89,28.16a4.55,4.55,0,0,1,.79.49c-19.71,5.15-40,9.69-59.83,15.85-20,6.21-38.87,15.18-55.5,28.93,14.49-1.34,29-3.19,43.49-3.85s29.32-.15,44.47-.15c-.93,1.06-1.59,1.88-2.33,2.64Q463.48-1.93,445.18,16.83c-1.81,1.85-2.28,3.34-1.17,5.82,2,4.42,3.09,9.25,5.3,13.53,2.76,5.35,1.69,10.6.72,15.92-5.18,28.63-10.34,57.26-15.78,85.84-1.08,5.71-3.46,11.15-5,16.78-.38,1.36-.38,3.39.39,4.4,6.63,8.66,9.18,18.21,7.07,29-.53,2.7.71,4.24,3,5.64,8.55,5.12,16.95,10.49,25.42,15.75,3.78,2.34,5.72,1.43,6.69-3a50,50,0,0,1,18-28.86c2.08-1.68,4.6-2.81,7.24-4.39a34.74,34.74,0,0,1,1.52,21c-1.26,5.17-2.86,10.26-4.24,15.4-.2.75-.36,2.1,0,2.31a3.38,3.38,0,0,0,2.69.34c12.34-5.49,23.9-12,30-25a39.64,39.64,0,0,1,3.66-6.52c2.71-3.78,2.59-7.75.07-11.14-8.78-11.79-7.54-24.46-3.93-37.45.33-1.2.75-2.37,1-3.57,1.67-6.7,4.58-12.4,10.57-16.52,6.35-4.37,12.13-9.56,18.3-14.2,13.69-10.29,21-24.08,22.19-41,.8-11.28.06-22.44-4.93-33.2,1.05,1.14,2.19,2.21,3.14,3.43,5.42,6.9,7.86,15.05,8.48,23.55,1.43,19.9-3.72,37.77-17.73,52.52-1.89,2-4,3.75-6,5.58,7.8,12.52,9.17,26.18,7.45,40.37-3.83,31.64-15.85,60.06-34.63,85.57-17.54,23.82-39.95,42-66.57,54.9a16.36,16.36,0,0,1-6.81,1.44c-28.83.09-57.66.06-86.49.06h-4.62v80.26ZM473.25,164.15c-1.37,6.8-6.77,10.61-13.6,9.59-5.48-.83-9.66-5.58-9.2-10.47,6.58,6.81,9.33,8,13.23,5.15,3.29-2.39,5.88-7.57.18-17.92C470.37,152.31,474.39,158.42,473.25,164.15ZM503.79,27.47c-4,8.21-8.32,16.27-12.92,24.17-1.59,2.71-4.8,2-7.1.85-3.38-1.71-6.45-4-10.38-6.54,8.52-8,16.15-15.33,23.94-22.47.95-.88,3.53-1.63,3.93-1.17C502.54,23.73,504.33,26.35,503.79,27.47ZM562.3,347.8c-4.66,3-10.33,5.5-15.76,6-9.72,1-19.59.27-29.8.27,4.22-11.78,8.12-23.28,12.5-34.6,1.34-3.46.72-5.14-2.37-6.74a22.8,22.8,0,0,1-6.27-5.07c1.54,0,3.08,0,4.61,0,11.21.22,22.44.11,33.61.89,4,.28,8.06,2.33,11.71,4.28a8.68,8.68,0,0,1,4.78,9.45C573.3,332,571.29,342,562.3,347.8ZM610.4,354c-.13-1.6-.26-3.06-.41-4.92-4.22,0-8.3-.13-12.36.1a3.93,3.93,0,0,0-2.68,2.07c-1.19,2.59-3,3.12-5.67,3-5.2-.2-10.41-.06-16.41-.06,8.88-13.21,17.4-25.86,26.14-38.85l-10.89-7.46h41c.45,15.57.89,30.73,1.34,46.1Zm86.49-23.57c-3.32,4.29-7.83,6.37-13.12,7.62,2.07,5.36,4.06,10.52,6.24,16.15-5.63,0-10.82.1-16-.09a3.74,3.74,0,0,1-2.45-2.07c-1.83-4.2-3.44-8.51-5.39-13.44-1.67,4.63-3.31,8.69-4.57,12.87-.67,2.22-1.77,2.85-4,2.79-5.35-.15-10.7-.05-16.55-.05,2.73-7.62,5.36-14.93,8-22.25,1.67-4.68,3.18-9.41,5.05-14,.86-2.12.33-3.15-1.43-4.24-2.7-1.66-5.28-3.52-7.9-5.29.06-.24.13-.48.2-.71h12.52c8.47,0,17-.09,25.42.06a27.33,27.33,0,0,1,7.68,1.22C700.25,312.05,703.15,322.32,696.89,330.41Zm59.39-6.6c-5.9,5.13-7.86,10.37-4.57,17.75,1.69,3.79,2.2,8.1,3.3,12.42H735.55c-1.56-6.8-3.15-13.66-5-21.57-2.05,5.67-3.82,10.46-5.5,15.27-2.28,6.5-2.26,6.51-9.09,6.51H703.28c3.76-10.46,7.37-20.61,11-30.74,2.93-8.1,3-8.09-4.2-12.92-1-.69-2-1.41-3.62-2.52H739c-1.9,5.51-3.79,11-5.67,16.43l.57.47c3.92-4.15,8.11-8.07,11.66-12.51,2.94-3.66,6.15-5.21,10.84-4.79s9.35.09,15,.09C765.92,313.57,761.56,319.21,756.28,323.81Zm71.8,54.77h-2.33v0H370.32v80.3h459ZM829.42,466h-3.64v0H370.25v78.47H830.62Z" transform="translate(-370.25 124.78)"/><path class="cls-1" d="M473.39,46c8.52-8,16.15-15.33,23.94-22.47.95-.88,3.53-1.63,3.93-1.17,1.28,1.42,3.07,4,2.53,5.16-4,8.21-8.32,16.27-12.92,24.17-1.59,2.71-4.8,2-7.1.85C480.39,50.78,477.32,48.47,473.39,46Z" transform="translate(-370.25 124.78)"/><path class="cls-1" d="M463.86,150.5c6.51,1.81,10.53,7.92,9.39,13.65-1.37,6.8-6.77,10.61-13.6,9.59-5.48-.83-9.66-5.58-9.2-10.47,6.58,6.81,9.33,8,13.23,5.15C467,166,469.56,160.85,463.86,150.5Z" transform="translate(-370.25 124.78)"/><path class="cls-1" d="M620.63,414.19c.91-2.6,1.09-5.47,2.62-6.78s4.41-1.4,6.57-1.1c1.13.16,3,2.68,2.75,3.49-.58,1.69-2.16,3.73-3.76,4.2C626.44,414.71,623.69,414.19,620.63,414.19Z" transform="translate(-370.25 124.78)"/><path class="cls-1" d="M670.1,327.57c.6-1.91.91-3,1.27-4,1.78-5.23,1.9-5.44,7.33-4.49,1.35.23,3.52,1.95,3.44,2.82-.14,1.64-1.32,4.09-2.64,4.55C676.79,327.38,673.7,327.22,670.1,327.57Z" transform="translate(-370.25 124.78)"/><path class="cls-1" d="M539.62,344.48c3.19-9,6.24-17.59,9.4-26.17a2.63,2.63,0,0,1,2-1.17c5.41-.39,7,1.73,5.17,6.78q-2.49,7-5,14.06C549.19,343.66,546.49,345.31,539.62,344.48Z" transform="translate(-370.25 124.78)"/><path class="cls-1" d="M611.83,325.35c-.33,5.7-.65,11.4-1,17.41H599.92l11.15-17.61Z" transform="translate(-370.25 124.78)"/><path class="cls-1" d="M558.6,433.64c-4.69,0-6-1.67-4.49-6,2.12-6.22,4.19-12.45,6.39-18.64,1.79-5.07,5.87-7.26,10.06-5.65,2.1.8,3,2.07,2.19,4.32-2.42,6.9-4.71,13.85-7.23,20.71C564.38,431.52,562.22,433.66,558.6,433.64Z" transform="translate(-370.25 124.78)"/><path class="cls-1" d="M505.66,521c-4.7-.1-6.07-2.06-4.6-6.41,2.08-6.11,4.16-12.2,6.29-18.29,1.74-4.95,5.24-7,9.68-5.82,2.31.62,3.43,2,2.59,4.4-2.42,7-4.79,14.08-7.34,21.07A7.6,7.6,0,0,1,505.66,521Z" transform="translate(-370.25 124.78)"/></svg>